HIERARCHY
ROOT Hips
{
   OFFSET 0.00000 0.00000 0.00000
   CHANNELS 6 Xposition Yposition Zposition Zrotation Xrotation Yrotation
   JOINT Spine
   {
      OFFSET 0.000000 11.890501 0.000000
      CHANNELS 3 Zrotation Xrotation Yrotation
      JOINT Spine1
      {
         OFFSET -0.000000 25.657401 0.127660
         CHANNELS 3 Zrotation Xrotation Yrotation
         JOINT HEad
         {
            OFFSET 0.000000 8.734161 0.011340
            CHANNELS 3 Zrotation Xrotation Yrotation
            End Site
            {
               OFFSET -0.290000 12.774200 2.513950
            }
         }
         JOINT LeftShoulder1
         {
            OFFSET 8.990000 -0.362250 -0.220000
            CHANNELS 3 Zrotation Xrotation Yrotation
            JOINT LeftArm
            {
               OFFSET 10.282700 -0.003380 0.322120
               CHANNELS 3 Zrotation Xrotation Yrotation
               JOINT LeftForeArm
               {
                  OFFSET 32.766900 0.099140 -1.424340
                  CHANNELS 3 Zrotation Xrotation Yrotation
                  JOINT LeftHand
                  {
                     OFFSET 27.564301 0.085360 1.022160
                     CHANNELS 3 Zrotation Xrotation Yrotation
                     End Site
                     {
                        OFFSET 16.744301 -0.600000 1.502910
                     }
                  }
               }
            }
         }
         JOINT RightShoulder
         {
            OFFSET -8.990000 -0.362250 -0.220000
            CHANNELS 3 Zrotation Xrotation Yrotation
            JOINT RightArm
            {
               OFFSET -10.282700 -0.003380 0.322120
               CHANNELS 3 Zrotation Xrotation Yrotation
               JOINT RightForeArm
               {
                  OFFSET -32.897098 0.099140 -1.424340
                  CHANNELS 3 Zrotation Xrotation Yrotation
                  JOINT RightHand
                  {
                     OFFSET -27.492101 0.085360 1.022160
                     CHANNELS 3 Zrotation Xrotation Yrotation
                     End Site
                     {
                        OFFSET -16.631201 -0.600000 1.502910
                     }
                  }
               }
            }
         }
      }
   }
   JOINT LeftUpLeg
   {
      OFFSET 8.945800 -8.667070 0.101650
      CHANNELS 3 Zrotation Xrotation Yrotation
      JOINT LeftLeg
      {
         OFFSET 0.000000 -44.422697 1.372700
         CHANNELS 3 Zrotation Xrotation Yrotation
         JOINT LeftFoot
         {
            OFFSET -0.253550 -42.092399 -1.460590
            CHANNELS 3 Zrotation Xrotation Yrotation
            JOINT LeftToes
            {
               OFFSET -0.040000 -4.415090 8.499099
               CHANNELS 3 Zrotation Xrotation Yrotation
               End Site
               {
                  OFFSET 0.080000 -0.047450 9.779790
               }
            }
         }
      }
   }
   JOINT RightUpLeg
   {
      OFFSET -8.945800 -8.667070 0.101650
      CHANNELS 3 Zrotation Xrotation Yrotation
      JOINT RightLeg
      {
         OFFSET 0.000000 -44.422697 1.372700
         CHANNELS 3 Zrotation Xrotation Yrotation
         JOINT RightFoot
         {
            OFFSET 0.253550 -42.092399 -1.460590
            CHANNELS 3 Zrotation Xrotation Yrotation
            JOINT RightToes
            {
               OFFSET 0.040000 -4.415090 8.499099
               CHANNELS 3 Zrotation Xrotation Yrotation
               End Site
               {
                  OFFSET -0.080000 -0.137450 9.779790
               }
            }
         }
      }
   }
}
MOTION
Frames: 10
Frame Time: 0.016670
-17.184313 87.038582 -44.528841 35.779563 23.918310 121.173689 -4.428932 33.046573 116.820687 33.244440 -12.637633 -110.860438 -24.676101 16.153440 24.391048 5.443808 49.284541 -31.102742 32.326725 -23.141277 -2.502088 46.549030 8.916161 -8.865899 -51.053608 -116.561809 -98.675333 -109.428318 41.336670 113.995126 99.093518 50.902319 214.914552 -11.901731 91.751598 59.192837 2.485044 8.010901 35.926368 11.597607 19.789700 16.387663 -5.273568 21.731377 76.550042 -14.201197 34.704393 -31.102441 -7.171102 13.336541 -49.906051 -30.423042 42.941751 0.694960 21.842783 11.813908 8.232624 -29.649674 0.900863 28.022857 18.609028 -15.082390 -51.091283
-17.560400 87.234620 -45.520691 35.788846 22.899095 120.645907 -3.033187 35.280017 116.214084 33.182954 -12.815011 -110.869693 -25.068066 13.605811 23.131177 9.557115 50.463770 -34.689206 32.149916 -24.408518 -0.583020 47.166151 8.008352 -5.464957 -55.674235 -113.261373 -98.233959 -111.782855 40.529663 113.387103 95.556607 52.416658 220.790345 -12.825516 92.687573 59.676859 2.074221 7.714912 34.011890 12.148181 19.567179 13.252393 -7.684828 21.705865 82.021474 -14.732931 34.295384 -31.195414 -7.290317 11.630716 -50.910277 -30.305652 42.425221 0.223578 23.592199 11.374859 9.038544 -30.251895 0.449030 28.016698 18.319267 -13.843071 -52.150875
-18.149773 87.347306 -46.303796 35.544161 21.651406 119.979786 -1.724748 37.285265 116.082439 33.380292 -12.841293 -110.842857 -25.495749 10.960834 22.278682 13.504291 51.775586 -37.894057 32.462072 -25.622324 1.601990 47.366443 6.290112 -3.540396 -57.573864 -114.150561 -99.455033 -113.773323 40.352034 112.876300 91.254319 54.076746 226.468159 -13.440467 94.160851 60.954377 2.055130 7.507410 33.267365 12.689940 18.718193 10.297037 -10.032972 22.098976 86.711717 -14.774234 34.473126 -31.395531 -7.561970 10.299888 -51.476936 -29.904187 41.412991 -0.294827 25.155720 10.875418 9.672906 -30.815116 0.220276 28.070433 18.200680 -12.771372 -53.205828
-18.946663 87.440032 -46.902189 35.662856 20.653061 119.457113 -0.958782 38.256788 115.539412 34.149532 -13.033529 -111.203983 -25.716197 7.828185 21.644456 17.252353 52.813960 -40.977307 32.437248 -26.857689 4.457277 47.654172 3.874000 -2.217892 -59.774032 -112.116059 -101.657913 -115.266518 40.555450 112.783908 86.320265 55.816227 231.115023 -14.202442 95.929515 62.292104 2.348160 7.518957 32.947364 13.285907 18.166351 8.682113 -11.354300 21.824833 89.162403 -14.380707 34.863065 -31.609101 -7.896035 9.224432 -51.543589 -29.268419 40.484908 -0.499134 26.323950 10.670741 10.321929 -31.255376 0.035459 28.249903 18.140629 -11.909771 -54.099545
-19.927759 87.523554 -47.306480 36.056135 20.388931 119.641596 0.274888 38.544264 115.421932 35.480917 -13.055971 -111.241529 -25.714516 5.496468 21.170907 20.917745 53.681209 -43.543480 33.399789 -27.886679 6.597287 47.876597 1.483569 -1.289018 -60.809748 -112.625605 -103.867950 -116.122805 41.424267 112.890473 81.529482 57.705707 235.744963 -14.836296 97.678481 63.969667 2.820864 7.593190 33.147577 13.944301 18.244002 7.973250 -12.300039 21.643917 89.409096 -13.681256 35.834734 -32.311077 -8.193840 8.621994 -51.373039 -28.872166 39.778721 -0.246014 26.837125 10.804391 11.179698 -31.537067 0.072384 28.778015 18.143870 -11.164048 -54.718862
-21.050594 87.597254 -47.595109 36.430122 20.017118 119.607896 0.657678 39.661437 115.981885 36.060715 -13.452064 -111.286909 -25.599061 3.596894 20.882433 24.406363 54.847607 -46.104726 34.597855 -28.729995 8.685362 48.067747 -0.199938 -0.095273 -62.874268 -111.053507 -105.758847 -116.708699 42.114653 112.380750 76.401157 59.421860 240.844163 -15.713053 99.293643 65.390886 3.435518 7.809223 33.438035 14.555750 18.318380 8.662815 -12.585089 21.679905 88.211709 -12.530470 36.525451 -32.830681 -8.458575 8.396268 -50.922902 -27.940327 39.244966 -0.659728 27.342321 10.859027 11.241855 -31.832937 0.552616 28.750578 18.494798 -10.138489 -55.570402
-22.265393 87.743157 -47.755999 37.038217 19.824189 119.898917 0.555588 41.001356 116.801262 36.234369 -14.202257 -111.551531 -25.423571 1.962365 20.774654 28.085512 56.209158 -48.463734 35.993318 -29.452015 10.622050 48.230561 -1.174346 1.269793 -64.856362 -110.502099 -106.991908 -116.953165 42.803429 111.435684 71.028537 61.010535 246.214167 -16.748413 100.664981 66.660795 4.118428 8.058703 33.987663 15.228416 18.540718 9.483062 -12.855913 21.675347 86.594696 -11.627765 36.459741 -33.430320 -8.903335 8.163014 -50.665220 -27.011016 38.832989 -0.887181 27.194982 10.762644 11.511655 -31.698344 0.759966 28.828504 19.052956 -8.783748 -56.017810
-23.495385 87.887677 -47.813453 37.218261 19.599810 120.632752 0.510460 43.070661 117.737667 35.893242 -15.154501 -112.090610 -25.322662 0.373055 20.859688 31.872453 58.082843 -50.838618 37.433825 -30.107347 12.459958 48.337447 -1.263570 2.515456 -67.858899 -108.427805 -107.597930 -116.913851 43.414192 110.100061 65.359344 62.505411 251.700312 -17.664666 101.791866 67.961591 4.702965 8.224127 34.855149 15.577165 18.362187 10.461828 -12.903319 21.276927 84.687591 -10.813102 36.162013 -34.057888 -9.536427 7.948927 -50.560714 -25.894553 38.488966 -0.812270 27.395013 12.161963 12.430940 -34.591326 -0.204902 28.600849 22.236798 -9.603050 -57.495242
-24.749834 88.040732 -47.771448 38.145278 20.243555 122.035004 0.362257 43.813150 118.552290 36.389028 -16.154611 -112.587472 -24.781840 -0.758062 20.992656 35.541992 59.112589 -53.086805 39.127828 -30.363906 13.786169 48.381085 -1.838430 3.614551 -69.329705 -107.597063 -109.296086 -116.367094 44.360955 109.909485 59.146337 64.266384 256.433196 -18.219692 103.143288 69.628868 5.451690 8.496590 36.267703 15.745256 19.169131 11.508914 -12.559272 20.795373 82.612265 -10.340417 35.617022 -34.687174 -10.334789 7.701458 -50.618457 -24.533264 38.493379 -0.220408 26.501498 15.404016 13.054570 -31.751015 -0.533047 28.796600 19.772752 -10.397445 -59.490934
-25.930495 88.216342 -47.734713 38.840072 20.670480 122.972638 0.681144 44.412909 119.489734 36.589228 -17.260766 -113.339483 -23.924478 -1.705731 21.173747 38.484472 59.668580 -54.731873 40.315813 -30.778171 14.984066 48.451904 -2.792669 4.956995 -70.589650 -106.867168 -111.032600 -115.881099 45.590201 109.440203 53.270718 65.414682 261.246266 -19.126753 104.625056 70.646436 6.322286 9.022920 36.832345 15.969331 19.791166 12.621615 -12.333911 20.434739 80.503144 -9.580101 35.385171 -35.062660 -10.929022 7.862658 -50.231745 -23.775660 38.273993 0.035580 26.091454 18.693043 14.122997 -31.119209 -1.335305 28.879030 19.879361 -11.547861 -61.776527
